<svg width="250" height="250" viewBox="0 0 373 496" fill="none" xmlns="http://www.w3.org/2000/svg">
   <path
      d="M138.261 118.042L141.489 129.958C154.562 125.947 169.284 124 186.5 124C203.71 124 218.432 125.947 231.511 129.958L234.745 118.042C228.684 116.182 222.238 114.818 215.501 113.77C219.33 107.719 221.469 100.508 221.469 93C221.469 72.4842 205.785 55.8 186.5 55.8C167.215 55.8 151.531 72.4842 151.531 93C151.531 100.508 153.676 107.719 157.499 113.77C150.762 114.818 144.322 116.182 138.261 118.042ZM163.187 93C163.187 79.3228 173.643 68.2 186.5 68.2C199.357 68.2 209.812 79.3228 209.812 93C209.812 100.477 206.63 107.471 201.268 112.139C196.519 111.811 191.629 111.6 186.5 111.6C181.371 111.6 176.481 111.811 171.726 112.139C166.364 107.465 163.187 100.471 163.187 93Z"
      fill="#bbbcc2" />
   <path
      d="M373 186H361.344C361.344 201.078 351.162 213.646 337.734 216.405C334.686 160.065 294.128 111.079 234.704 93.2294L231.54 105.164C288.265 122.208 326.375 169.638 326.375 223.2C326.375 262.365 306.122 298.418 270.815 322.115L268.094 323.938V378.2H242.252L228.439 353.716C236.173 351.54 242.747 349.01 247.386 346.549L242.17 335.457C231.202 341.291 208.554 347.2 186.5 347.2C164.446 347.2 141.798 341.291 130.824 335.451L125.608 346.543C130.247 349.004 136.821 351.54 144.555 353.71L130.748 378.2H104.906V323.938L102.19 322.115C81.0925 307.948 64.8029 288.455 55.5362 266.6H64.1094V254.2H17.4844C15.9574 254.2 14.5004 253.549 13.393 252.365C12.274 251.174 11.6562 249.624 11.6562 248V198.4C11.6562 196.776 12.2682 195.226 13.3814 194.041C14.5004 192.851 15.9574 192.2 17.4844 192.2H50.9728L52.354 188.077C57.8966 171.498 67.1458 156.395 79.8453 143.189L81.5938 141.366V87.141C93.3957 88.5236 104.335 94.0974 112.908 103.218C114.476 104.836 117.279 108.605 118.235 109.926L120.887 113.596L141.967 104.997L137.789 93.4216L124.751 98.7412C123.562 97.216 122.198 95.5358 121.091 94.395C108.98 81.499 92.8828 74.4 75.7656 74.4H69.9375V136.177C57.8849 149.166 48.7814 163.81 42.8251 179.8H17.4844C12.851 179.8 8.46827 181.741 5.14041 185.275C1.8242 188.809 0 193.471 0 198.4V248C0 252.929 1.8242 257.585 5.14623 261.132C8.46827 264.659 12.851 266.6 17.4844 266.6H42.9475C52.3482 291.766 69.955 314.334 93.25 330.733V390.6H137.346L156.555 356.55C165.851 358.385 176.068 359.6 186.5 359.6C196.932 359.6 207.149 358.385 216.445 356.55L235.654 390.6H279.75V330.739C315.156 305.883 336.032 269.179 337.856 228.935C357.672 225.99 373 207.88 373 186Z"
      fill="#bbbcc2" />
   <path
      d="M93.25 204.6C86.8216 204.6 81.5938 199.039 81.5938 192.2H69.9375C69.9375 205.877 80.3932 217 93.25 217C106.107 217 116.562 205.877 116.562 192.2H104.906C104.906 199.039 99.6784 204.6 93.25 204.6Z"
      fill="#bbbcc2" />
   <path d="M34.9688 217H23.3125V229.4H34.9688V217Z" fill="#bbbcc2" />
   <path d="M180.672 6.20001H169.016V31H180.672V6.20001Z" fill="#bbbcc2" />
   <path d="M203.984 18.6H192.328V43.4H203.984V18.6Z" fill="#bbbcc2" />
</svg>